<svg xmlns="http://www.w3.org/2000/svg" width="191.512" height="143.218" viewBox="0 0 191.512 143.218">
  <g id="Group_12783" data-name="Group 12783" transform="translate(21554.254 5942.917)">
    <path id="Path_21339" data-name="Path 21339" d="M128.875,131.523c.834-2.48,1.564-4.834,2.417-7.137a3.869,3.869,0,0,1,4.1-2.535,96.868,96.868,0,0,1,29.878,7.7,55.866,55.866,0,0,1,12.819,7.754c2.358,1.932,3.8,4.612,5.169,7.292a176.668,176.668,0,0,1,12.066,32.018,226.166,226.166,0,0,1,6.38,29.76,156.819,156.819,0,0,1,1.8,24.255,5.692,5.692,0,0,1-.789,2.675,39.815,39.815,0,0,1-14.016,13.839,85.58,85.58,0,0,1-33.519,11.64c-.943.132-1.9.168-2.848.227a4.191,4.191,0,0,1-3.918-1.85c-2.984-4.154-5.99-8.289-8.956-12.456a1.474,1.474,0,0,0-1.809-.707,120.912,120.912,0,0,1-30.676,2.884,117.223,117.223,0,0,1-23.367-2.929,1.06,1.06,0,0,0-1.31.472c-2.925,4.072-5.909,8.1-8.779,12.2A5,5,0,0,1,68.6,259a83.333,83.333,0,0,1-21.276-4.9,67.8,67.8,0,0,1-18.551-9.772,37.071,37.071,0,0,1-9.99-11.087,6.122,6.122,0,0,1-.775-2.893A162.793,162.793,0,0,1,19.38,209.88,226.938,226.938,0,0,1,27.329,172.8a159.572,159.572,0,0,1,11.2-28.617,21.47,21.47,0,0,1,3.619-5.432,39.959,39.959,0,0,1,6.911-5.337c8.747-5.437,18.41-8.461,28.468-10.33,2.666-.494,5.369-.8,8.058-1.165a4.034,4.034,0,0,1,4.779,2.739c.748,1.973,1.342,4.009,1.909,6.045.2.73.49.862,1.179.753a98.068,98.068,0,0,1,22.246-1.342c4.108.29,8.2.857,12.3,1.3.313.036.621.077.88.109M147,241.567c2.226,3.006,4.353,5.9,6.521,8.765a1.3,1.3,0,0,0,1.011.249,73.2,73.2,0,0,0,28.1-9.341,35.74,35.74,0,0,0,12.252-11.16,2.909,2.909,0,0,0,.44-1.56,180.959,180.959,0,0,0-3.814-33.061A223.335,223.335,0,0,0,184.6,169.3a124.58,124.58,0,0,0-8.221-20.26c-1.719-3.179-3.6-6.122-6.856-8.112a66.08,66.08,0,0,0-18.846-7.89c-3.859-.957-7.8-1.587-11.713-2.326-.376-.068-1.038.036-1.174.277a8.941,8.941,0,0,0-.608,1.873c4.485,1.424,8.811,2.694,13.064,4.172a83.87,83.87,0,0,1,15.667,7.609,4.023,4.023,0,1,1-4.181,6.87c-1.51-.907-3.011-1.841-4.575-2.648-13.4-6.92-27.8-10.008-42.743-10.751a103.511,103.511,0,0,0-30.391,3.4A81.38,81.38,0,0,0,59.7,151.584a4.021,4.021,0,1,1-4.126-6.9c.54-.336,1.1-.626,1.646-.952a79.386,79.386,0,0,1,14.91-7c3.995-1.369,8.053-2.535,12.2-3.827a9.913,9.913,0,0,1-.245-1.084c-.127-1.034-.658-1.32-1.669-1.12-1.7.336-3.415.531-5.11.857a76.55,76.55,0,0,0-22.977,7.981,21.165,21.165,0,0,0-8.919,8.987,130.5,130.5,0,0,0-7.446,17.735,226.117,226.117,0,0,0-9.736,39.369,162.087,162.087,0,0,0-2,22.754,3.864,3.864,0,0,0,.639,2.031,29.669,29.669,0,0,0,6.475,6.929c9.944,7.84,21.516,11.536,33.855,13.264a1.477,1.477,0,0,0,1.07-.59c1.882-2.471,3.718-4.974,5.564-7.468.227-.3.431-.626.671-.989-.272-.127-.453-.227-.648-.3-2.925-1.129-5.895-2.158-8.77-3.392a65.916,65.916,0,0,1-15.2-8.906,4.025,4.025,0,0,1-.757-5.813,4.156,4.156,0,0,1,5.954-.413,42.95,42.95,0,0,0,3.578,2.635,81.284,81.284,0,0,0,26.074,10.606,105.767,105.767,0,0,0,24.754,2.834c5.918-.063,11.844-.444,17.73-1.052,4-.408,8.067-.857,11.8-2.607a4.506,4.506,0,0,1,1.034-.218,21.4,21.4,0,0,0,2.163-.413c8.9-2.616,17.326-6.185,24.645-12.044a3.725,3.725,0,0,1,4.285-.281c2.689,1.424,2.848,4.988.322,6.947a73,73,0,0,1-17.875,9.949c-2.122.848-4.276,1.61-6.584,2.476" transform="translate(-21569.264 -6061.729)" fill="#066fe0" stroke="#066fe0" stroke-width="6"/>
    <path id="Path_21340" data-name="Path 21340" d="M56.9,174.6c-5.559-.213-10.575-3.678-13.98-9.654a21.812,21.812,0,0,1,2.893-25.022c7.527-8.1,19.752-7.373,26.518,1.592a21.784,21.784,0,0,1-1.9,28.042c-3.247,3.269-7.5,5.047-13.536,5.042m11.59-19.585a14.6,14.6,0,0,0-1.737-7.36c-3.632-6.444-11.454-7.11-15.83-1.347a13.943,13.943,0,0,0,.562,16.973,8.871,8.871,0,0,0,12.987.821,12.259,12.259,0,0,0,4.018-9.087" transform="translate(-21490.672 -6017.672)" fill="#066fe0"/>
    <path id="Path_21341" data-name="Path 21341" d="M28.681,153.542a19.929,19.929,0,0,1,8.3-15.966,16.575,16.575,0,0,1,21.535,1.478c8.171,7.718,8.661,21.512,1.057,29.8-7.976,8.684-21.185,7.419-27.5-2.63a22.864,22.864,0,0,1-3.4-12.679m28.25,1.224a13.579,13.579,0,0,0-3.006-8.9,8.88,8.88,0,0,0-13.427-.789c-4.643,4.43-5.033,13.159-.8,17.984,3.288,3.746,7.845,4.634,11.763,2.136,3.886-2.476,5.324-6.289,5.473-10.434" transform="translate(-21531.545 -6017.693)" fill="#066fe0"/>
  </g>
</svg>
