<?xml version="1.0" encoding="utf-8"?>
<!-- Generator: Adobe Illustrator 26.2.1, SVG Export Plug-In . SVG Version: 6.00 Build 0)  -->
<svg version="1.1" id="Layer_1" xmlns="http://www.w3.org/2000/svg" xmlns:xlink="http://www.w3.org/1999/xlink" x="0px" y="0px"
	 viewBox="0 0 175.5 143.9" style="enable-background:new 0 0 175.5 143.9;" xml:space="preserve">
<style type="text/css">
	.st0{fill:none;stroke:#066FE0;stroke-width:7;}
	.st1{clip-path:url(#SVGID_00000044881632603387324090000009447969491646653855_);}
	.st2{fill:none;stroke:#066FE0;stroke-width:3;}
	.st3{clip-path:url(#SVGID_00000178909643149770754250000000068388225653202875_);}
</style>
<g id="Group_12854" transform="translate(4 4)">
	<g>
		<defs>
			<rect id="SVGID_00000075152453167960397790000009221391588586252928_" x="41.7" y="-4" width="84" height="143.9"/>
		</defs>
		<clipPath id="SVGID_00000055691027398104750450000012989974019979595710_">
			<use xlink:href="#SVGID_00000075152453167960397790000009221391588586252928_"  style="overflow:visible;"/>
		</clipPath>
		
			<g id="Group_12853" transform="translate(-4 -4)" style="clip-path:url(#SVGID_00000055691027398104750450000012989974019979595710_);">
			<path id="Path_21316" class="st0" d="M74.3,137.1c-1.4-0.5-2.3-2-2.1-3.5c0-17.2,0-34.4,0-51.5v-1.7h-1.5c-4.9,0-9.8,0-14.8,0
				c-2.5,0-3.4-0.9-3.4-3.3c0-6.7,0-13.4,0-20.1c0-2.4,1-3.3,3.4-3.3c4.9,0,9.8,0,14.8,0h1.5c0-0.6,0-1,0-1.5
				c0-5.2-0.1-10.4,0.1-15.5c0.1-7.4,2.7-14.5,7.5-20.1c4.4-5.2,10.7-8.5,17.5-9.2c6.2-0.6,12.5-0.4,18.8-0.6c1.3,0,2.6,0,3.9,0
				c1.5-0.2,2.8,0.9,2.9,2.4c0,0.2,0,0.4,0,0.5c0,6.4,0,12.9,0,19.3c0,2-1.1,2.9-3.1,2.9c-4.5,0.1-8.9,0-13.4,0.2
				c-2.4-0.2-4.6,1-5.8,3.1c-0.6,1.2-0.9,2.4-1,3.8c-0.1,4.8,0,9.6,0,14.6h18.9c2.6,0,3.5,0.9,3.5,3.5c0,6.6,0,13.2,0,19.9
				c0,2.5-0.9,3.4-3.4,3.4c-5.9,0-11.7,0-17.6,0h-1.5V82c0,17.1,0,34.3,0,51.4c0.2,1.6-0.6,3.1-2,3.7L74.3,137.1z"/>
		</g>
	</g>
</g>
</svg>
