<svg xmlns="http://www.w3.org/2000/svg" width="175.461" height="175.46" viewBox="0 0 175.461 175.46">
  <g id="Group_12784" data-name="Group 12784" transform="translate(21018.168 5952.217)">
    <path id="Path_21337" data-name="Path 21337" d="M279.924,159.977a10.178,10.178,0,1,1-10.18-10.175,10.179,10.179,0,0,1,10.18,10.175M267.25,205.608a42.756,42.756,0,1,1-42.756-42.756,42.806,42.806,0,0,1,42.756,42.756m-15.368,0A27.386,27.386,0,1,0,224.493,233a27.422,27.422,0,0,0,27.389-27.389m59.149-34.349a52.149,52.149,0,0,0-52.147-52.147H187.718a52.149,52.149,0,0,0-52.147,52.147v71.165a52.149,52.149,0,0,0,52.147,52.147h71.165a52.149,52.149,0,0,0,52.147-52.147ZM293.913,241.64a35.817,35.817,0,0,1-35.818,35.814H188.507a35.815,35.815,0,0,1-35.818-35.814v-69.6a35.814,35.814,0,0,1,35.818-35.814h69.587a35.817,35.817,0,0,1,35.818,35.814Z" transform="translate(-21153.738 -6071.329)" fill="#066fe0"/>
  </g>
</svg>
