<?xml version="1.0" encoding="utf-8"?>
<!-- Generator: Adobe Illustrator 26.2.1, SVG Export Plug-In . SVG Version: 6.00 Build 0)  -->
<svg version="1.1" id="Layer_1" xmlns="http://www.w3.org/2000/svg" xmlns:xlink="http://www.w3.org/1999/xlink" x="0px" y="0px"
	 viewBox="0 0 175.5 143.9" style="enable-background:new 0 0 175.5 143.9;" xml:space="preserve">
<style type="text/css">
	.st0{fill:none;stroke:#066FE0;stroke-width:7;}
	.st1{clip-path:url(#SVGID_00000036938170405738978750000001307494847710519175_);}
	.st2{fill:none;stroke:#066FE0;stroke-width:3;}
	.st3{clip-path:url(#SVGID_00000120547362196771642580000005073547193795608478_);}
</style>
<path id="Path_21335_00000010273824851687351790000011435730116400774575_" class="st0" d="M169.3,20.5c-5.4,2.3-11,3.9-16.8,4.7
	c2.7-0.4,6.5-5.3,8.1-7.3c2.5-3,4.3-6.4,5.5-10.1c0.1-0.3,0.2-0.6-0.1-0.9c-0.3-0.1-0.6-0.1-0.9,0.1c-6.2,3.3-12.9,5.9-19.7,7.6
	c-0.5,0.2-1,0-1.4-0.4c-0.5-0.6-1.1-1.2-1.7-1.8c-2.8-2.5-6.1-4.4-9.6-5.9c-4.6-1.9-9.7-2.7-14.7-2.4c-4.9,0.3-9.6,1.7-13.9,3.9
	c-4.3,2.3-8.1,5.4-11.2,9.2c-3.2,3.9-5.5,8.5-6.7,13.4c-1,4.7-1.2,9.5-0.4,14.2c0.1,0.8,0,0.9-0.7,0.8c-27.1-4-49.5-13.7-67.8-34.5
	c-0.8-0.9-1.2-0.9-1.9,0.1c-8,12-4.1,31.2,5.9,40.6c1.3,1.3,2.7,2.5,4.2,3.7c-4.6-0.3-9-1.6-13.1-3.7c-0.8-0.5-1.2-0.2-1.3,0.7
	c0,1.3,0,2.6,0.2,3.9c1.5,12.1,9.9,23.3,21.4,27.7c1.4,0.6,2.9,1,4.3,1.3c-2.6,0.6-5.3,1-12.8,0.4c-0.9-0.2-1.3,0.3-0.9,1.2
	c5.6,15.4,17.8,20,27,22.6c1.2,0.2,2.4,0.2,3.7,0.5c-0.1,0.1-0.1,0.1-0.2,0.2c-3,4.6-13.5,8.1-18.4,9.8c-9,3.2-18.5,4.4-28,3.6
	c-1.5-0.2-1.8-0.2-2.2,0c-0.4,0.3-0.1,0.6,0.4,1c1.9,1.3,3.8,2.4,5.8,3.5c5.9,3.2,12.2,5.7,18.7,7.5c33.6,9.3,71.4,2.5,96.6-22.6
	c19.8-19.7,26.7-46.8,26.7-74c0-1.1,1.3-1.7,2-2.2c5.1-3.9,9.6-8.5,13.5-13.7c0.6-0.7,1-1.7,1.2-2.6v-0.1
	C170.3,20.1,170,20.2,169.3,20.5"/>
</svg>
